<svg width="1440" height="1024" viewBox="0 0 1440 1024" fill="none" xmlns="http://www.w3.org/2000/svg">
<rect width="1440" height="1024" fill="#178CBF"/>
<g clip-path="url(#clip0_1_22)">
<path d="M706.859 398V412.192V426.384H747.86V468.971H706.859V483.163V497.355H775.296V398H706.859Z" fill="white"/>
<path d="M693.141 398H665.704V426.384H693.141V398Z" fill="white"/>
<path d="M665.704 497.355H675.447C685.214 497.355 693.141 489.155 693.141 479.051V440.588H665.704V497.355Z" fill="white"/>
</g>
<path d="M545.368 542.217C542.946 542.217 541.005 541.57 539.544 540.276C538.082 538.981 537.352 537.353 537.352 535.391C537.352 533.387 538.082 531.738 539.544 530.444C541.005 529.108 542.946 528.44 545.368 528.44C547.747 528.44 549.668 529.108 551.129 530.444C552.59 531.738 553.321 533.387 553.321 535.391C553.321 537.353 552.59 538.981 551.129 540.276C549.668 541.57 547.747 542.217 545.368 542.217ZM552.256 545.035V580.355H538.354V545.035H552.256ZM583.271 544.785C587.321 544.785 590.473 546.141 592.728 548.855C595.024 551.569 596.172 555.243 596.172 559.877V580.355H582.332V561.63C582.332 559.96 581.873 558.645 580.954 557.685C580.078 556.683 578.888 556.182 577.385 556.182C575.84 556.182 574.629 556.683 573.753 557.685C572.876 558.645 572.438 559.96 572.438 561.63V580.355H558.535V545.035H572.438V550.421C573.523 548.751 574.963 547.394 576.759 546.35C578.596 545.306 580.767 544.785 583.271 544.785ZM626.937 544.785C630.986 544.785 634.138 546.141 636.393 548.855C638.689 551.569 639.837 555.243 639.837 559.877V580.355H625.997V561.63C625.997 559.96 625.538 558.645 624.62 557.685C623.743 556.683 622.553 556.182 621.05 556.182C619.505 556.182 618.295 556.683 617.418 557.685C616.541 558.645 616.103 559.96 616.103 561.63V580.355H602.2V545.035H616.103V550.421C617.188 548.751 618.629 547.394 620.424 546.35C622.261 545.306 624.432 544.785 626.937 544.785ZM662.649 580.793C659.1 580.793 655.906 580.063 653.067 578.601C650.229 577.14 647.995 575.053 646.367 572.339C644.78 569.584 643.987 566.369 643.987 562.695C643.987 559.021 644.78 555.827 646.367 553.114C647.995 550.358 650.229 548.25 653.067 546.789C655.906 545.327 659.1 544.597 662.649 544.597C666.198 544.597 669.391 545.327 672.23 546.789C675.069 548.25 677.282 550.358 678.868 553.114C680.497 555.827 681.311 559.021 681.311 562.695C681.311 566.369 680.497 569.584 678.868 572.339C677.282 575.053 675.069 577.14 672.23 578.601C669.391 580.063 666.198 580.793 662.649 580.793ZM662.649 568.769C663.943 568.769 665.029 568.268 665.905 567.267C666.782 566.223 667.22 564.699 667.22 562.695C667.22 560.691 666.782 559.188 665.905 558.186C665.029 557.142 663.943 556.62 662.649 556.62C661.355 556.62 660.269 557.142 659.392 558.186C658.516 559.188 658.077 560.691 658.077 562.695C658.077 564.699 658.495 566.223 659.33 567.267C660.207 568.268 661.313 568.769 662.649 568.769ZM703.589 567.141L709.225 545.035H724.004L712.231 580.355H694.884L683.111 545.035H697.89L703.589 567.141ZM725.814 562.695C725.814 558.979 726.44 555.765 727.692 553.051C728.987 550.296 730.74 548.208 732.953 546.789C735.165 545.327 737.65 544.597 740.405 544.597C742.701 544.597 744.684 545.077 746.354 546.037C748.024 546.956 749.298 548.229 750.174 549.857V545.035H764.014V580.355H750.174V575.533C749.298 577.161 748.024 578.455 746.354 579.416C744.684 580.334 742.701 580.793 740.405 580.793C737.65 580.793 735.165 580.083 732.953 578.664C730.74 577.203 728.987 575.115 727.692 572.402C726.44 569.646 725.814 566.411 725.814 562.695ZM750.174 562.695C750.174 560.816 749.694 559.355 748.734 558.311C747.774 557.268 746.542 556.746 745.039 556.746C743.536 556.746 742.305 557.268 741.344 558.311C740.384 559.355 739.904 560.816 739.904 562.695C739.904 564.574 740.384 566.035 741.344 567.079C742.305 568.122 743.536 568.644 745.039 568.644C746.542 568.644 747.774 568.122 748.734 567.079C749.694 566.035 750.174 564.574 750.174 562.695ZM806.516 551.235C806.516 554.032 805.869 556.579 804.575 558.875C803.28 561.129 801.36 562.925 798.813 564.261C796.308 565.597 793.261 566.265 789.67 566.265H784.159V580.355H770.257V536.017H789.67C795.098 536.017 799.252 537.395 802.132 540.15C805.055 542.906 806.516 546.601 806.516 551.235ZM788.105 555.305C790.985 555.305 792.426 553.949 792.426 551.235C792.426 548.521 790.985 547.164 788.105 547.164H784.159V555.305H788.105ZM864.218 536.017V580.355H850.378V558.249L843.552 580.355H831.654L824.828 558.249V580.355H810.926V536.017H827.959L837.728 562.632L847.247 536.017H864.218ZM887.838 580.793C882.536 580.793 878.152 579.562 874.687 577.098C871.264 574.593 869.406 570.94 869.114 566.139H883.893C884.102 568.686 885.229 569.959 887.275 569.959C888.026 569.959 888.652 569.792 889.153 569.458C889.696 569.083 889.967 568.519 889.967 567.768C889.967 566.724 889.404 565.889 888.277 565.263C887.149 564.595 885.396 563.843 883.016 563.008C880.177 562.006 877.818 561.025 875.94 560.065C874.103 559.105 872.516 557.706 871.18 555.869C869.844 554.032 869.197 551.673 869.239 548.793C869.239 545.912 869.97 543.47 871.431 541.466C872.934 539.42 874.959 537.875 877.505 536.831C880.094 535.788 882.995 535.266 886.21 535.266C891.637 535.266 895.937 536.518 899.11 539.023C902.325 541.528 904.016 545.056 904.183 549.607H889.216C889.174 548.354 888.861 547.457 888.277 546.914C887.692 546.371 886.982 546.1 886.147 546.1C885.563 546.1 885.083 546.308 884.707 546.726C884.331 547.102 884.143 547.644 884.143 548.354C884.143 549.356 884.686 550.191 885.772 550.859C886.899 551.485 888.673 552.258 891.095 553.176C893.892 554.22 896.188 555.222 897.983 556.182C899.82 557.142 901.407 558.478 902.743 560.19C904.079 561.902 904.747 564.052 904.747 566.64C904.747 569.354 904.079 571.796 902.743 573.967C901.407 576.096 899.465 577.766 896.919 578.977C894.372 580.188 891.345 580.793 887.838 580.793Z" fill="white"/>
<path d="M594.087 607.021V608.649H587.421V613.819H592.833V615.447H587.421V622.355H585.419V607.021H594.087ZM597.539 608.341C597.157 608.341 596.835 608.209 596.571 607.945C596.307 607.681 596.175 607.358 596.175 606.977C596.175 606.596 596.307 606.273 596.571 606.009C596.835 605.745 597.157 605.613 597.539 605.613C597.905 605.613 598.213 605.745 598.463 606.009C598.727 606.273 598.859 606.596 598.859 606.977C598.859 607.358 598.727 607.681 598.463 607.945C598.213 608.209 597.905 608.341 597.539 608.341ZM598.507 610.299V622.355H596.505V610.299H598.507ZM607.793 610.079C609.259 610.079 610.447 610.526 611.357 611.421C612.266 612.301 612.721 613.577 612.721 615.249V622.355H610.741V615.535C610.741 614.332 610.44 613.416 609.839 612.785C609.237 612.14 608.416 611.817 607.375 611.817C606.319 611.817 605.475 612.147 604.845 612.807C604.229 613.467 603.921 614.428 603.921 615.689V622.355H601.919V610.299H603.921V612.015C604.317 611.399 604.852 610.922 605.527 610.585C606.216 610.248 606.971 610.079 607.793 610.079ZM615.243 616.283C615.243 615.051 615.492 613.973 615.991 613.049C616.49 612.11 617.172 611.384 618.037 610.871C618.917 610.358 619.9 610.101 620.985 610.101C621.924 610.101 622.796 610.321 623.603 610.761C624.41 611.186 625.026 611.751 625.451 612.455V606.075H627.475V622.355H625.451V620.089C625.055 620.808 624.468 621.402 623.691 621.871C622.914 622.326 622.004 622.553 620.963 622.553C619.892 622.553 618.917 622.289 618.037 621.761C617.172 621.233 616.49 620.492 615.991 619.539C615.492 618.586 615.243 617.5 615.243 616.283ZM625.451 616.305C625.451 615.396 625.268 614.604 624.901 613.929C624.534 613.254 624.036 612.741 623.405 612.389C622.789 612.022 622.107 611.839 621.359 611.839C620.611 611.839 619.929 612.015 619.313 612.367C618.697 612.719 618.206 613.232 617.839 613.907C617.472 614.582 617.289 615.374 617.289 616.283C617.289 617.207 617.472 618.014 617.839 618.703C618.206 619.378 618.697 619.898 619.313 620.265C619.929 620.617 620.611 620.793 621.359 620.793C622.107 620.793 622.789 620.617 623.405 620.265C624.036 619.898 624.534 619.378 624.901 618.703C625.268 618.014 625.451 617.214 625.451 616.305ZM647.107 610.299L639.847 628.031H637.779L640.155 622.223L635.293 610.299H637.515L641.299 620.067L645.039 610.299H647.107ZM654.378 622.553C653.248 622.553 652.222 622.296 651.298 621.783C650.388 621.27 649.67 620.544 649.142 619.605C648.628 618.652 648.372 617.552 648.372 616.305C648.372 615.073 648.636 613.988 649.164 613.049C649.706 612.096 650.44 611.37 651.364 610.871C652.288 610.358 653.322 610.101 654.466 610.101C655.61 610.101 656.644 610.358 657.568 610.871C658.492 611.37 659.218 612.088 659.746 613.027C660.288 613.966 660.56 615.058 660.56 616.305C660.56 617.552 660.281 618.652 659.724 619.605C659.181 620.544 658.44 621.27 657.502 621.783C656.563 622.296 655.522 622.553 654.378 622.553ZM654.378 620.793C655.096 620.793 655.771 620.624 656.402 620.287C657.032 619.95 657.538 619.444 657.92 618.769C658.316 618.094 658.514 617.273 658.514 616.305C658.514 615.337 658.323 614.516 657.942 613.841C657.56 613.166 657.062 612.668 656.446 612.345C655.83 612.008 655.162 611.839 654.444 611.839C653.71 611.839 653.036 612.008 652.42 612.345C651.818 612.668 651.334 613.166 650.968 613.841C650.601 614.516 650.418 615.337 650.418 616.305C650.418 617.288 650.594 618.116 650.946 618.791C651.312 619.466 651.796 619.972 652.398 620.309C652.999 620.632 653.659 620.793 654.378 620.793ZM673.884 610.299V622.355H671.882V620.573C671.501 621.189 670.965 621.673 670.276 622.025C669.601 622.362 668.853 622.531 668.032 622.531C667.093 622.531 666.25 622.34 665.502 621.959C664.754 621.563 664.16 620.976 663.72 620.199C663.295 619.422 663.082 618.476 663.082 617.361V610.299H665.062V617.097C665.062 618.285 665.363 619.202 665.964 619.847C666.565 620.478 667.387 620.793 668.428 620.793C669.499 620.793 670.342 620.463 670.958 619.803C671.574 619.143 671.882 618.182 671.882 616.921V610.299H673.884ZM679.266 612.257C679.618 611.568 680.117 611.032 680.762 610.651C681.422 610.27 682.222 610.079 683.16 610.079V612.147H682.632C680.388 612.147 679.266 613.364 679.266 615.799V622.355H677.264V610.299H679.266V612.257ZM693.339 612.543C693.749 611.824 694.351 611.238 695.143 610.783C695.935 610.328 696.837 610.101 697.849 610.101C698.934 610.101 699.909 610.358 700.775 610.871C701.64 611.384 702.322 612.11 702.821 613.049C703.319 613.973 703.569 615.051 703.569 616.283C703.569 617.5 703.319 618.586 702.821 619.539C702.322 620.492 701.633 621.233 700.753 621.761C699.887 622.289 698.919 622.553 697.849 622.553C696.807 622.553 695.891 622.326 695.099 621.871C694.321 621.416 693.735 620.837 693.339 620.133V622.355H691.337V606.075H693.339V612.543ZM701.523 616.283C701.523 615.374 701.339 614.582 700.973 613.907C700.606 613.232 700.107 612.719 699.477 612.367C698.861 612.015 698.179 611.839 697.431 611.839C696.697 611.839 696.015 612.022 695.385 612.389C694.769 612.741 694.27 613.262 693.889 613.951C693.522 614.626 693.339 615.41 693.339 616.305C693.339 617.214 693.522 618.014 693.889 618.703C694.27 619.378 694.769 619.898 695.385 620.265C696.015 620.617 696.697 620.793 697.431 620.793C698.179 620.793 698.861 620.617 699.477 620.265C700.107 619.898 700.606 619.378 700.973 618.703C701.339 618.014 701.523 617.207 701.523 616.283ZM717.204 615.865C717.204 616.246 717.182 616.65 717.138 617.075H707.502C707.575 618.263 707.978 619.194 708.712 619.869C709.46 620.529 710.362 620.859 711.418 620.859C712.283 620.859 713.002 620.661 713.574 620.265C714.16 619.854 714.571 619.312 714.806 618.637H716.962C716.639 619.796 715.994 620.742 715.026 621.475C714.058 622.194 712.855 622.553 711.418 622.553C710.274 622.553 709.247 622.296 708.338 621.783C707.443 621.27 706.739 620.544 706.226 619.605C705.712 618.652 705.456 617.552 705.456 616.305C705.456 615.058 705.705 613.966 706.204 613.027C706.702 612.088 707.399 611.37 708.294 610.871C709.203 610.358 710.244 610.101 711.418 610.101C712.562 610.101 713.574 610.35 714.454 610.849C715.334 611.348 716.008 612.037 716.478 612.917C716.962 613.782 717.204 614.765 717.204 615.865ZM715.136 615.447C715.136 614.684 714.967 614.032 714.63 613.489C714.292 612.932 713.83 612.514 713.244 612.235C712.672 611.942 712.034 611.795 711.33 611.795C710.318 611.795 709.452 612.118 708.734 612.763C708.03 613.408 707.626 614.303 707.524 615.447H715.136ZM724.114 622.553C723.19 622.553 722.362 622.399 721.628 622.091C720.895 621.768 720.316 621.328 719.89 620.771C719.465 620.199 719.23 619.546 719.186 618.813H721.254C721.313 619.414 721.592 619.906 722.09 620.287C722.604 620.668 723.271 620.859 724.092 620.859C724.855 620.859 725.456 620.69 725.896 620.353C726.336 620.016 726.556 619.59 726.556 619.077C726.556 618.549 726.322 618.16 725.852 617.911C725.383 617.647 724.657 617.39 723.674 617.141C722.78 616.906 722.046 616.672 721.474 616.437C720.917 616.188 720.433 615.828 720.022 615.359C719.626 614.875 719.428 614.244 719.428 613.467C719.428 612.851 719.612 612.286 719.978 611.773C720.345 611.26 720.866 610.856 721.54 610.563C722.215 610.255 722.985 610.101 723.85 610.101C725.185 610.101 726.263 610.438 727.084 611.113C727.906 611.788 728.346 612.712 728.404 613.885H726.402C726.358 613.254 726.102 612.748 725.632 612.367C725.178 611.986 724.562 611.795 723.784 611.795C723.066 611.795 722.494 611.949 722.068 612.257C721.643 612.565 721.43 612.968 721.43 613.467C721.43 613.863 721.555 614.193 721.804 614.457C722.068 614.706 722.391 614.912 722.772 615.073C723.168 615.22 723.711 615.388 724.4 615.579C725.266 615.814 725.97 616.048 726.512 616.283C727.055 616.503 727.517 616.84 727.898 617.295C728.294 617.75 728.5 618.344 728.514 619.077C728.514 619.737 728.331 620.331 727.964 620.859C727.598 621.387 727.077 621.805 726.402 622.113C725.742 622.406 724.98 622.553 724.114 622.553ZM733.782 611.949V619.055C733.782 619.642 733.907 620.06 734.156 620.309C734.406 620.544 734.838 620.661 735.454 620.661H736.928V622.355H735.124C734.01 622.355 733.174 622.098 732.616 621.585C732.059 621.072 731.78 620.228 731.78 619.055V611.949H730.218V610.299H731.78V607.263H733.782V610.299H736.928V611.949H733.782ZM744.471 616.305C744.471 615.058 744.721 613.973 745.219 613.049C745.718 612.11 746.407 611.384 747.287 610.871C748.182 610.358 749.201 610.101 750.345 610.101C751.827 610.101 753.044 610.46 753.997 611.179C754.965 611.898 755.603 612.895 755.911 614.171H753.755C753.55 613.438 753.147 612.858 752.545 612.433C751.959 612.008 751.225 611.795 750.345 611.795C749.201 611.795 748.277 612.191 747.573 612.983C746.869 613.76 746.517 614.868 746.517 616.305C746.517 617.757 746.869 618.879 747.573 619.671C748.277 620.463 749.201 620.859 750.345 620.859C751.225 620.859 751.959 620.654 752.545 620.243C753.132 619.832 753.535 619.246 753.755 618.483H755.911C755.589 619.715 754.943 620.705 753.975 621.453C753.007 622.186 751.797 622.553 750.345 622.553C749.201 622.553 748.182 622.296 747.287 621.783C746.407 621.27 745.718 620.544 745.219 619.605C744.721 618.666 744.471 617.566 744.471 616.305ZM757.835 616.283C757.835 615.051 758.084 613.973 758.583 613.049C759.081 612.11 759.763 611.384 760.629 610.871C761.509 610.358 762.484 610.101 763.555 610.101C764.611 610.101 765.527 610.328 766.305 610.783C767.082 611.238 767.661 611.81 768.043 612.499V610.299H770.067V622.355H768.043V620.111C767.647 620.815 767.053 621.402 766.261 621.871C765.483 622.326 764.574 622.553 763.533 622.553C762.462 622.553 761.494 622.289 760.629 621.761C759.763 621.233 759.081 620.492 758.583 619.539C758.084 618.586 757.835 617.5 757.835 616.283ZM768.043 616.305C768.043 615.396 767.859 614.604 767.493 613.929C767.126 613.254 766.627 612.741 765.997 612.389C765.381 612.022 764.699 611.839 763.951 611.839C763.203 611.839 762.521 612.015 761.905 612.367C761.289 612.719 760.797 613.232 760.431 613.907C760.064 614.582 759.881 615.374 759.881 616.283C759.881 617.207 760.064 618.014 760.431 618.703C760.797 619.378 761.289 619.898 761.905 620.265C762.521 620.617 763.203 620.793 763.951 620.793C764.699 620.793 765.381 620.617 765.997 620.265C766.627 619.898 767.126 619.378 767.493 618.703C767.859 618.014 768.043 617.214 768.043 616.305ZM779.324 610.079C780.791 610.079 781.979 610.526 782.888 611.421C783.797 612.301 784.252 613.577 784.252 615.249V622.355H782.272V615.535C782.272 614.332 781.971 613.416 781.37 612.785C780.769 612.14 779.947 611.817 778.906 611.817C777.85 611.817 777.007 612.147 776.376 612.807C775.76 613.467 775.452 614.428 775.452 615.689V622.355H773.45V610.299H775.452V612.015C775.848 611.399 776.383 610.922 777.058 610.585C777.747 610.248 778.503 610.079 779.324 610.079ZM786.774 616.283C786.774 615.051 787.023 613.973 787.522 613.049C788.021 612.11 788.703 611.384 789.568 610.871C790.448 610.358 791.431 610.101 792.516 610.101C793.455 610.101 794.327 610.321 795.134 610.761C795.941 611.186 796.557 611.751 796.982 612.455V606.075H799.006V622.355H796.982V620.089C796.586 620.808 795.999 621.402 795.222 621.871C794.445 622.326 793.535 622.553 792.494 622.553C791.423 622.553 790.448 622.289 789.568 621.761C788.703 621.233 788.021 620.492 787.522 619.539C787.023 618.586 786.774 617.5 786.774 616.283ZM796.982 616.305C796.982 615.396 796.799 614.604 796.432 613.929C796.065 613.254 795.567 612.741 794.936 612.389C794.32 612.022 793.638 611.839 792.89 611.839C792.142 611.839 791.46 612.015 790.844 612.367C790.228 612.719 789.737 613.232 789.37 613.907C789.003 614.582 788.82 615.374 788.82 616.283C788.82 617.207 789.003 618.014 789.37 618.703C789.737 619.378 790.228 619.898 790.844 620.265C791.46 620.617 792.142 620.793 792.89 620.793C793.638 620.793 794.32 620.617 794.936 620.265C795.567 619.898 796.065 619.378 796.432 618.703C796.799 618.014 796.982 617.214 796.982 616.305ZM803.423 608.341C803.042 608.341 802.719 608.209 802.455 607.945C802.191 607.681 802.059 607.358 802.059 606.977C802.059 606.596 802.191 606.273 802.455 606.009C802.719 605.745 803.042 605.613 803.423 605.613C803.79 605.613 804.098 605.745 804.347 606.009C804.611 606.273 804.743 606.596 804.743 606.977C804.743 607.358 804.611 607.681 804.347 607.945C804.098 608.209 803.79 608.341 803.423 608.341ZM804.391 610.299V622.355H802.389V610.299H804.391ZM807.055 616.283C807.055 615.051 807.305 613.973 807.803 613.049C808.302 612.11 808.984 611.384 809.849 610.871C810.729 610.358 811.712 610.101 812.797 610.101C813.736 610.101 814.609 610.321 815.415 610.761C816.222 611.186 816.838 611.751 817.263 612.455V606.075H819.287V622.355H817.263V620.089C816.867 620.808 816.281 621.402 815.503 621.871C814.726 622.326 813.817 622.553 812.775 622.553C811.705 622.553 810.729 622.289 809.849 621.761C808.984 621.233 808.302 620.492 807.803 619.539C807.305 618.586 807.055 617.5 807.055 616.283ZM817.263 616.305C817.263 615.396 817.08 614.604 816.713 613.929C816.347 613.254 815.848 612.741 815.217 612.389C814.601 612.022 813.919 611.839 813.171 611.839C812.423 611.839 811.741 612.015 811.125 612.367C810.509 612.719 810.018 613.232 809.651 613.907C809.285 614.582 809.101 615.374 809.101 616.283C809.101 617.207 809.285 618.014 809.651 618.703C810.018 619.378 810.509 619.898 811.125 620.265C811.741 620.617 812.423 620.793 813.171 620.793C813.919 620.793 814.601 620.617 815.217 620.265C815.848 619.898 816.347 619.378 816.713 618.703C817.08 618.014 817.263 617.214 817.263 616.305ZM821.923 616.283C821.923 615.051 822.172 613.973 822.671 613.049C823.169 612.11 823.851 611.384 824.717 610.871C825.597 610.358 826.572 610.101 827.643 610.101C828.699 610.101 829.615 610.328 830.393 610.783C831.17 611.238 831.749 611.81 832.131 612.499V610.299H834.155V622.355H832.131V620.111C831.735 620.815 831.141 621.402 830.349 621.871C829.571 622.326 828.662 622.553 827.621 622.553C826.55 622.553 825.582 622.289 824.717 621.761C823.851 621.233 823.169 620.492 822.671 619.539C822.172 618.586 821.923 617.5 821.923 616.283ZM832.131 616.305C832.131 615.396 831.947 614.604 831.581 613.929C831.214 613.254 830.715 612.741 830.085 612.389C829.469 612.022 828.787 611.839 828.039 611.839C827.291 611.839 826.609 612.015 825.993 612.367C825.377 612.719 824.885 613.232 824.519 613.907C824.152 614.582 823.969 615.374 823.969 616.283C823.969 617.207 824.152 618.014 824.519 618.703C824.885 619.378 825.377 619.898 825.993 620.265C826.609 620.617 827.291 620.793 828.039 620.793C828.787 620.793 829.469 620.617 830.085 620.265C830.715 619.898 831.214 619.378 831.581 618.703C831.947 618.014 832.131 617.214 832.131 616.305ZM839.98 611.949V619.055C839.98 619.642 840.104 620.06 840.354 620.309C840.603 620.544 841.036 620.661 841.652 620.661H843.126V622.355H841.322C840.207 622.355 839.371 622.098 838.814 621.585C838.256 621.072 837.978 620.228 837.978 619.055V611.949H836.416V610.299H837.978V607.263H839.98V610.299H843.126V611.949H839.98ZM856.551 615.865C856.551 616.246 856.529 616.65 856.485 617.075H846.849C846.923 618.263 847.326 619.194 848.059 619.869C848.807 620.529 849.709 620.859 850.765 620.859C851.631 620.859 852.349 620.661 852.921 620.265C853.508 619.854 853.919 619.312 854.153 618.637H856.309C855.987 619.796 855.341 620.742 854.373 621.475C853.405 622.194 852.203 622.553 850.765 622.553C849.621 622.553 848.595 622.296 847.685 621.783C846.791 621.27 846.087 620.544 845.573 619.605C845.06 618.652 844.803 617.552 844.803 616.305C844.803 615.058 845.053 613.966 845.551 613.027C846.05 612.088 846.747 611.37 847.641 610.871C848.551 610.358 849.592 610.101 850.765 610.101C851.909 610.101 852.921 610.35 853.801 610.849C854.681 611.348 855.356 612.037 855.825 612.917C856.309 613.782 856.551 614.765 856.551 615.865ZM854.483 615.447C854.483 614.684 854.315 614.032 853.977 613.489C853.64 612.932 853.178 612.514 852.591 612.235C852.019 611.942 851.381 611.795 850.677 611.795C849.665 611.795 848.8 612.118 848.081 612.763C847.377 613.408 846.974 614.303 846.871 615.447H854.483Z" fill="white" fill-opacity="0.7"/>
<defs>
<clipPath id="clip0_1_22">
<rect width="109.591" height="99.3548" fill="white" transform="translate(665.704 398)"/>
</clipPath>
</defs>
</svg>
